<svg xmlns="http://www.w3.org/2000/svg"
     width="24"
     height="24"
     version="1.1"
     viewBox="0 0 24 24">
    <defs>
        <radialGradient id="grad1" cx="16.5" cy="16" r="10.9"
                        gradientTransform="matrix(.711 -.703 1.44 1.46 -18.3 4.25)" gradientUnits="userSpaceOnUse">
            <stop stop-color="#a13bc3" offset="0"/>
            <stop stop-color="#4e2e61" offset="1"/>
        </radialGradient>
        <linearGradient id="grad2" x2="6.78" y2="6.78" gradientUnits="userSpaceOnUse">
            <stop stop-color="#637739" offset="0"/>
            <stop stop-color="#93b93c" offset="1"/>
        </linearGradient>
    </defs>
    <path fill="url(#grad1)"
          d="m3.29 2.21c-0.666-0.195-1.28 0.424-1.09 1.09 2.49 8.58 6.03 14.5 9.67 17.8 1.82 1.64 3.68 2.63 5.5 2.86 1.82 0.235 3.57-0.348 4.9-1.68 1.33-1.33 1.91-3.09 1.68-4.9-0.235-1.82-1.22-3.68-2.86-5.5-3.28-3.64-9.22-7.17-17.8-9.67z"/>
    <path fill="url(#grad2)"
          d="m0 0 0.564 3.05c-1.26 3.18 1.25 3.75 3.71 6.21-0.622-1.33-0.118-1.95-0.9-3.4 1.26-0.223 2.31 0.424 3.4 0.92-0.496-1.09-1.14-2.14-0.92-3.4 1.45 0.782 2.07 0.278 3.4 0.9-2.45-2.45-3.03-4.97-6.21-3.71l-3.05-0.564z"/>
</svg>
